# xmcd
#
# Track frame offsets: 
#        150
#        24201
#        34396
#        44111
#        58699
#        70384
#        80267
#        95253
#        104443
#        107804
#        121425
#        139134
#        157966
#        180582
#        183458
#        187686
#        212101
#        240154
#        255150
#
# Disc length: 3595 seconds
#
# Revision: 0
# Processed by: cddbd v1.5.2PL0 Copyright (c) Steve Scherf et al.
# Submitted via: ExactAudioCopyFreeDBPlugin 1.0
#
DISCID=fb0e0913
DTITLE=Kanye West - The Life Of Pablo
DYEAR=2016
DGENRE=Rap
TTITLE0=Ultralight Beam Feat. Chance The Rapper, The-Dream, Kelly Pric
TTITLE0=e and Kirk Franklin
TTITLE1=Father Stretch My Hands Pt. 1 Feat. Kid Cudi
TTITLE2=Pt. 2 Feat. Desiigner and Caroline Shaw
TTITLE3=Famous Feat. Rihanna and Swizz Beatz
TTITLE4=Feedback
TTITLE5=Low Lights
TTITLE6=Highlightshit Feat. Young Thug
TTITLE7=Freestyle 4 Feat. Desiigner
TTITLE8=I Love Kanye
TTITLE9=Waves Feat. Chris Brown and Kid Cudi
TTITLE10=FML Feat. The Weeknd
TTITLE11=Real Friends Feat. Ty Dolla $ign
TTITLE12=Wolves Feat. Vic Mensa, Sia and Caroline Shaw
TTITLE13=Frank's Track Feat. Frank Ocean
TTITLE14=Siiiiiiiiilver Surffffeeeeer Intermission Feat. Max B and Frenc
TTITLE14=h Montana
TTITLE15=30 Hours Feat. André 3000
TTITLE16=No More Parties In L.A. Feat. Kendrick Lamar
TTITLE17=Facts (Charlie Heat Version)
TTITLE18=Fade Feat. Post Malone and Ty Dolla $ign
EXTD=
EXTT0=
EXTT1=
EXTT2=
EXTT3=
EXTT4=
EXTT5=
EXTT6=
EXTT7=
EXTT8=
EXTT9=
EXTT10=
EXTT11=
EXTT12=
EXTT13=
EXTT14=
EXTT15=
EXTT16=
EXTT17=
EXTT18=
PLAYORDER=
